<svg width="261" height="261" viewBox="0 0 261 261" fill="none" xmlns="http://www.w3.org/2000/svg">
<g filter="url(#filter0_d_33_2413)">
<rect x="40.1046" y="36.188" width="180" height="180" rx="32" fill="white"/>
<rect x="40.6046" y="36.688" width="179" height="179" rx="31.5" stroke="white"/>
</g>
<path d="M116.802 97.2758C103.734 94.8957 93.4012 97.3874 89.2832 104.519C86.2103 109.841 87.0875 116.898 91.4122 124.442C91.4997 124.595 91.6165 124.729 91.7558 124.836C91.8951 124.944 92.0543 125.023 92.2243 125.069C92.3942 125.115 92.5716 125.128 92.7462 125.105C92.9208 125.083 93.0893 125.026 93.2421 124.938C93.5505 124.761 93.776 124.469 93.8691 124.126C93.9622 123.783 93.9152 123.417 93.7385 123.108C89.8424 116.314 89.0831 110.223 91.6045 105.859C95.0249 99.9345 104.24 97.712 116.321 99.9127C116.539 99.9559 116.765 99.944 116.978 99.8781C117.19 99.8122 117.383 99.6945 117.539 99.5354C117.695 99.3764 117.808 99.181 117.87 98.9671C117.931 98.7531 117.938 98.5272 117.89 98.3098C117.833 98.0484 117.698 97.8102 117.504 97.626C117.31 97.4417 117.065 97.3199 116.801 97.276L116.802 97.2758ZM98.2079 133.61C103.492 139.417 110.357 144.864 118.186 149.384C137.142 160.329 157.322 163.254 167.267 156.472C167.554 156.269 167.749 155.962 167.811 155.616C167.873 155.27 167.797 154.914 167.6 154.624C167.402 154.334 167.098 154.133 166.754 154.064C166.409 153.996 166.052 154.065 165.758 154.258C156.856 160.327 137.687 157.548 119.526 147.063C111.93 142.677 105.283 137.404 100.191 131.807C100.014 131.606 99.7804 131.463 99.5211 131.396C99.2619 131.328 98.9885 131.34 98.7361 131.43C98.5263 131.504 98.3383 131.63 98.1892 131.795C98.0402 131.961 97.9347 132.161 97.8822 132.377C97.8298 132.593 97.8321 132.819 97.889 133.035C97.9458 133.25 98.0555 133.448 98.2079 133.61Z" fill="#2DD0ED"/>
<path d="M164.096 131.98C172.652 121.872 175.641 111.705 171.531 104.587C168.508 99.3498 162.115 96.5847 153.62 96.4744C153.264 96.4698 152.922 96.6065 152.667 96.8544C152.412 97.1023 152.266 97.4411 152.261 97.7965C152.258 98.0616 152.333 98.3219 152.477 98.5444C152.621 98.7668 152.829 98.9413 153.072 99.0456C153.234 99.1152 153.408 99.1523 153.584 99.1546C161.225 99.2534 166.733 101.636 169.21 105.927C172.623 111.839 169.959 120.906 162.051 130.249C161.933 130.383 161.843 130.538 161.786 130.707C161.729 130.876 161.707 131.055 161.72 131.232C161.733 131.41 161.781 131.583 161.862 131.742C161.943 131.901 162.055 132.042 162.191 132.157C162.327 132.272 162.485 132.358 162.655 132.411C162.824 132.465 163.003 132.484 163.181 132.467C163.358 132.451 163.53 132.399 163.687 132.316C163.844 132.232 163.983 132.118 164.096 131.98ZM142.106 97.7222C134.369 99.3803 126.134 102.621 118.227 107.187C98.6568 118.485 85.8912 135.144 87.6648 147.224C87.6869 147.401 87.7441 147.572 87.8331 147.727C87.9221 147.882 88.0411 148.017 88.1831 148.125C88.3251 148.233 88.4873 148.312 88.6601 148.356C88.8329 148.401 89.0129 148.41 89.1895 148.384C89.366 148.359 89.5356 148.298 89.6883 148.205C89.841 148.113 89.9737 147.991 90.0786 147.846C90.1835 147.702 90.2585 147.538 90.2992 147.364C90.3399 147.191 90.3455 147.011 90.3157 146.835C88.7422 136.109 100.842 120.317 119.566 109.508C127.237 105.078 135.211 101.941 142.668 100.342C143.005 100.257 143.295 100.045 143.479 99.7502C143.663 99.4553 143.724 99.1006 143.652 98.7609C143.579 98.4212 143.377 98.123 143.089 97.9293C142.8 97.7355 142.448 97.6613 142.106 97.7222Z" fill="#2DD0ED"/>
<path d="M110.402 155.599C114.878 168.09 122.196 175.782 130.427 175.782C136.428 175.782 141.982 171.691 146.312 164.488C146.409 164.337 146.475 164.168 146.506 163.991C146.537 163.814 146.531 163.633 146.491 163.458C146.44 163.239 146.335 163.037 146.185 162.869C146.036 162.701 145.846 162.574 145.635 162.499C145.423 162.423 145.195 162.403 144.973 162.438C144.751 162.474 144.542 162.565 144.365 162.703C144.223 162.813 144.105 162.95 144.017 163.106C140.124 169.58 135.343 173.103 130.427 173.103C123.591 173.103 117.062 166.242 112.927 154.695C112.87 154.526 112.78 154.37 112.662 154.236C112.544 154.102 112.401 153.992 112.241 153.914C112.08 153.837 111.906 153.791 111.728 153.782C111.55 153.772 111.372 153.799 111.204 153.859C111.036 153.919 110.882 154.012 110.75 154.133C110.619 154.253 110.513 154.399 110.438 154.561C110.364 154.723 110.322 154.898 110.316 155.076C110.31 155.255 110.34 155.432 110.404 155.599H110.402ZM151.269 153.155C153.585 145.755 154.828 137.216 154.828 128.319C154.828 106.12 147.059 86.9816 135.991 82.0673C135.668 81.9312 135.304 81.9274 134.978 82.0567C134.651 82.186 134.389 82.4381 134.246 82.7588C134.104 83.0795 134.093 83.4432 134.216 83.7719C134.339 84.1006 134.586 84.368 134.904 84.5167C144.775 88.9002 152.149 107.062 152.149 128.319C152.149 136.95 150.943 145.219 148.712 152.354C148.654 152.524 148.631 152.703 148.643 152.881C148.656 153.059 148.704 153.233 148.785 153.393C148.907 153.633 149.099 153.831 149.335 153.96C149.571 154.09 149.84 154.146 150.108 154.12C150.376 154.094 150.63 153.988 150.838 153.816C151.045 153.644 151.195 153.413 151.269 153.155ZM176.506 151.843C176.512 150.997 176.35 150.159 176.03 149.376C175.71 148.593 175.238 147.881 174.642 147.281C174.046 146.681 173.337 146.205 172.557 145.88C171.776 145.555 170.938 145.388 170.093 145.388C169.247 145.388 168.41 145.555 167.629 145.88C166.848 146.205 166.139 146.681 165.543 147.281C164.947 147.881 164.476 148.593 164.156 149.376C163.836 150.159 163.674 150.997 163.679 151.843C163.69 153.537 164.371 155.157 165.572 156.351C166.774 157.545 168.399 158.215 170.093 158.215C171.787 158.215 173.412 157.545 174.613 156.351C175.815 155.157 176.495 153.536 176.506 151.843ZM173.826 151.843C173.826 152.833 173.432 153.782 172.732 154.482C172.032 155.182 171.083 155.576 170.093 155.576C169.354 155.576 168.633 155.357 168.019 154.947C167.405 154.536 166.927 153.953 166.644 153.271C166.362 152.589 166.288 151.839 166.432 151.115C166.576 150.39 166.931 149.725 167.453 149.203C167.975 148.681 168.641 148.326 169.365 148.182C170.089 148.038 170.839 148.111 171.521 148.394C172.203 148.677 172.786 149.155 173.197 149.769C173.607 150.383 173.826 151.104 173.826 151.843ZM90.6684 158.256C91.5107 158.256 92.3447 158.09 93.1229 157.768C93.9011 157.446 94.6081 156.973 95.2037 156.378C95.7993 155.782 96.2717 155.075 96.5939 154.297C96.9162 153.519 97.082 152.685 97.0819 151.843C97.082 151 96.9162 150.166 96.5939 149.388C96.2716 148.61 95.7991 147.903 95.2035 147.307C94.6079 146.712 93.9009 146.239 93.1227 145.917C92.3445 145.595 91.5104 145.429 90.6682 145.429C89.8259 145.429 88.9919 145.595 88.2138 145.917C87.4357 146.24 86.7287 146.712 86.1331 147.308C85.5376 147.903 85.0652 148.61 84.7429 149.388C84.4207 150.166 84.2548 151 84.2549 151.843C84.2548 152.685 84.4207 153.519 84.743 154.297C85.0652 155.075 85.5377 155.782 86.1332 156.378C86.7288 156.973 87.4358 157.446 88.214 157.768C88.9921 158.09 89.8262 158.256 90.6684 158.256ZM90.6684 155.576C89.6781 155.576 88.7283 155.182 88.0281 154.482C87.3278 153.782 86.9344 152.832 86.9344 151.842C86.9344 150.851 87.3278 149.902 88.0281 149.201C88.7283 148.501 89.6781 148.108 90.6684 148.108C91.6587 148.108 92.6085 148.501 93.3088 149.201C94.009 149.902 94.4024 150.851 94.4024 151.842C94.4024 152.832 94.009 153.782 93.3088 154.482C92.6085 155.182 91.6587 155.576 90.6684 155.576Z" fill="#2DD0ED"/>
<path d="M130.427 88.6092C131.695 88.6094 132.935 88.2332 133.99 87.5285C135.045 86.8237 135.867 85.8219 136.352 84.6499C136.755 83.6755 136.912 82.6166 136.809 81.5671C136.705 80.5176 136.345 79.5098 135.759 78.6329C135.173 77.756 134.38 77.0372 133.45 76.5399C132.52 76.0427 131.481 75.7824 130.427 75.7822C129.158 75.782 127.918 76.158 126.863 76.8627C125.809 77.5674 124.986 78.569 124.501 79.741C124.015 80.913 123.888 82.2026 124.136 83.4468C124.384 84.6909 124.995 85.8337 125.892 86.7306C126.487 87.3261 127.194 87.7985 127.972 88.1208C128.751 88.4431 129.585 88.609 130.427 88.609V88.6092ZM130.427 85.9287C129.689 85.9286 128.967 85.7096 128.353 85.2995C127.739 84.8893 127.26 84.3063 126.978 83.6243C126.79 83.1714 126.693 82.6859 126.693 82.1956C126.693 81.7053 126.79 81.2198 126.978 80.767C127.165 80.314 127.44 79.9024 127.787 79.5558C128.134 79.2092 128.545 78.9342 128.998 78.7467C129.508 78.5354 130.059 78.4399 130.61 78.467C131.162 78.4941 131.7 78.6432 132.187 78.9034C132.674 79.1637 133.097 79.5287 133.426 79.9721C133.755 80.4155 133.981 80.9264 134.089 81.4679C134.197 82.0094 134.183 82.568 134.049 83.1035C133.915 83.639 133.663 84.1382 133.313 84.5649C132.963 84.9917 132.522 85.3355 132.023 85.5715C131.524 85.8076 130.979 85.93 130.427 85.93V85.9287ZM131.406 132.856C130.203 133.116 128.946 132.887 127.912 132.22C127.14 131.723 126.533 131.008 126.168 130.165C125.803 129.323 125.696 128.392 125.86 127.488C126.024 126.585 126.453 125.751 127.091 125.091C127.73 124.432 128.55 123.976 129.447 123.783C130.642 123.544 131.883 123.784 132.902 124.453C133.921 125.121 134.636 126.163 134.894 127.354C135.151 128.545 134.929 129.789 134.277 130.818C133.624 131.847 132.593 132.579 131.406 132.855V132.856Z" fill="#2DD0ED"/>
<defs>
<filter id="filter0_d_33_2413" x="0.104614" y="0.187988" width="260" height="260" filterUnits="userSpaceOnUse" color-interpolation-filters="sRGB">
<feFlood flood-opacity="0" result="BackgroundImageFix"/>
<feColorMatrix in="SourceAlpha" type="matrix" values="0 0 0 0 0 0 0 0 0 0 0 0 0 0 0 0 0 0 127 0" result="hardAlpha"/>
<feOffset dy="4"/>
<feGaussianBlur stdDeviation="20"/>
<feComposite in2="hardAlpha" operator="out"/>
<feColorMatrix type="matrix" values="0 0 0 0 0.0367917 0 0 0 0 0.0348958 0 0 0 0 0.0484375 0 0 0 0.1 0"/>
<feBlend mode="normal" in2="BackgroundImageFix" result="effect1_dropShadow_33_2413"/>
<feBlend mode="normal" in="SourceGraphic" in2="effect1_dropShadow_33_2413" result="shape"/>
</filter>
</defs>
</svg>
