<svg width="261" height="261" viewBox="0 0 261 261" fill="none" xmlns="http://www.w3.org/2000/svg">
<g filter="url(#filter0_d_25_408)">
<rect x="40.9329" y="36.2969" width="180" height="180" rx="32" fill="white"/>
<rect x="41.4329" y="36.7969" width="179" height="179" rx="31.5" stroke="white"/>
</g>
<path d="M164.31 119.557L130.866 138.807V151.02L164.31 131.77V119.557ZM161.346 96.0518L130.866 113.595V125.808L170.447 103.027H161.346V96.0518ZM131.077 75.8911L87.6772 100.708L87.4656 150.708L130.654 175.891L174.054 151.075L174.266 101.076L131.077 75.8911ZM131.377 87.7466L163.961 106.747L163.801 144.471L131.057 163.194L98.4725 144.194L98.6321 106.47L131.377 87.7466Z" fill="#409EFF"/>
<defs>
<filter id="filter0_d_25_408" x="0.932861" y="0.296875" width="260" height="260" filterUnits="userSpaceOnUse" color-interpolation-filters="sRGB">
<feFlood flood-opacity="0" result="BackgroundImageFix"/>
<feColorMatrix in="SourceAlpha" type="matrix" values="0 0 0 0 0 0 0 0 0 0 0 0 0 0 0 0 0 0 127 0" result="hardAlpha"/>
<feOffset dy="4"/>
<feGaussianBlur stdDeviation="20"/>
<feComposite in2="hardAlpha" operator="out"/>
<feColorMatrix type="matrix" values="0 0 0 0 0.0367917 0 0 0 0 0.0348958 0 0 0 0 0.0484375 0 0 0 0.1 0"/>
<feBlend mode="normal" in2="BackgroundImageFix" result="effect1_dropShadow_25_408"/>
<feBlend mode="normal" in="SourceGraphic" in2="effect1_dropShadow_25_408" result="shape"/>
</filter>
</defs>
</svg>
