<svg width="261" height="261" viewBox="0 0 261 261" fill="none" xmlns="http://www.w3.org/2000/svg">
<g filter="url(#filter0_d_22_661)">
<rect x="40.724" y="36.8909" width="180" height="180" rx="32" fill="white"/>
<rect x="41.224" y="37.3909" width="179" height="179" rx="31.5" stroke="white"/>
</g>
<path d="M87.8228 119.117C87.6281 119.117 87.5794 119.02 87.6768 118.874L88.6992 117.559C88.7966 117.413 89.04 117.316 89.2348 117.316H106.617C106.811 117.316 106.86 117.462 106.763 117.608L105.935 118.874C105.838 119.02 105.594 119.166 105.448 119.166L87.8228 119.117ZM80.4709 123.596C80.2761 123.596 80.2274 123.499 80.3248 123.353L81.3473 122.038C81.4446 121.892 81.6881 121.795 81.8828 121.795H104.085C104.28 121.795 104.377 121.941 104.328 122.087L103.939 123.256C103.89 123.45 103.695 123.548 103.501 123.548L80.4709 123.596ZM92.2535 128.076C92.0587 128.076 92.01 127.93 92.1074 127.784L92.7891 126.566C92.8864 126.42 93.0812 126.274 93.2759 126.274H103.014C103.208 126.274 103.306 126.42 103.306 126.615L103.208 127.784C103.208 127.978 103.014 128.124 102.868 128.124L92.2535 128.076ZM142.792 118.241C139.725 119.02 137.631 119.604 134.612 120.383C133.882 120.578 133.833 120.626 133.2 119.896C132.47 119.068 131.935 118.533 130.912 118.046C127.845 116.537 124.875 116.975 122.099 118.776C118.789 120.919 117.085 124.083 117.133 128.027C117.182 131.922 119.86 135.136 123.706 135.671C127.017 136.109 129.792 134.941 131.983 132.458C132.421 131.922 132.811 131.338 133.298 130.656H123.901C122.879 130.656 122.635 130.023 122.976 129.196C123.609 127.686 124.777 125.154 125.459 123.889C125.605 123.596 125.946 123.11 126.676 123.11H144.399C144.301 124.424 144.301 125.739 144.107 127.053C143.571 130.559 142.257 133.772 140.114 136.596C136.609 141.222 132.032 144.094 126.238 144.873C121.467 145.506 117.036 144.581 113.141 141.66C109.538 138.933 107.493 135.33 106.957 130.851C106.324 125.544 107.882 120.773 111.096 116.585C114.553 112.057 119.129 109.185 124.729 108.162C129.305 107.335 133.687 107.87 137.631 110.548C140.212 112.252 142.062 114.589 143.279 117.413C143.571 117.851 143.376 118.095 142.792 118.241Z" fill="#00ACD7"/>
<path d="M158.908 145.165C154.477 145.068 150.436 143.802 147.028 140.881C144.155 138.398 142.354 135.233 141.77 131.484C140.893 125.982 142.403 121.113 145.713 116.78C149.268 112.106 153.552 109.672 159.346 108.649C164.312 107.773 168.986 108.26 173.222 111.132C177.069 113.761 179.454 117.316 180.087 121.99C180.915 128.563 179.016 133.918 174.488 138.495C171.275 141.757 167.331 143.802 162.803 144.727C161.488 144.971 160.174 145.019 158.908 145.165ZM170.496 125.495C170.447 124.862 170.447 124.375 170.35 123.889C169.473 119.068 165.043 116.342 160.417 117.413C155.889 118.435 152.968 121.308 151.897 125.885C151.02 129.682 152.871 133.529 156.376 135.087C159.054 136.255 161.732 136.109 164.312 134.795C168.159 132.799 170.252 129.682 170.496 125.495Z" fill="#00ACD7"/>
<defs>
<filter id="filter0_d_22_661" x="0.723999" y="0.890869" width="260" height="260" filterUnits="userSpaceOnUse" color-interpolation-filters="sRGB">
<feFlood flood-opacity="0" result="BackgroundImageFix"/>
<feColorMatrix in="SourceAlpha" type="matrix" values="0 0 0 0 0 0 0 0 0 0 0 0 0 0 0 0 0 0 127 0" result="hardAlpha"/>
<feOffset dy="4"/>
<feGaussianBlur stdDeviation="20"/>
<feComposite in2="hardAlpha" operator="out"/>
<feColorMatrix type="matrix" values="0 0 0 0 0.0367917 0 0 0 0 0.0348958 0 0 0 0 0.0484375 0 0 0 0.1 0"/>
<feBlend mode="normal" in2="BackgroundImageFix" result="effect1_dropShadow_22_661"/>
<feBlend mode="normal" in="SourceGraphic" in2="effect1_dropShadow_22_661" result="shape"/>
</filter>
</defs>
</svg>
