<svg width="261" height="261" viewBox="0 0 261 261" fill="none" xmlns="http://www.w3.org/2000/svg">
<g filter="url(#filter0_d_305_112)">
<rect x="40.724" y="36.6238" width="180" height="180" rx="32" fill="white"/>
<rect x="41.224" y="37.1238" width="179" height="179" rx="31.5" stroke="white"/>
</g>
<path fill-rule="evenodd" clip-rule="evenodd" d="M139.881 76.4141C139.158 76.4141 138.487 76.5691 137.867 76.7757C139.184 77.6537 139.907 78.8159 140.269 80.1329C140.294 80.3137 140.346 80.4429 140.372 80.6236C140.398 80.7786 140.423 80.9335 140.423 81.0885C140.527 83.3611 139.829 83.6452 139.339 84.9881C138.59 86.7184 138.796 88.5778 139.7 90.0756C139.778 90.2564 139.881 90.463 140.01 90.6438C139.029 84.11 144.478 83.1287 145.485 81.0885C145.563 79.3065 144.091 78.1186 142.929 77.2922C141.818 76.6207 140.811 76.4141 139.881 76.4141ZM148.094 77.8862C147.99 78.4801 148.068 78.3252 148.042 78.6351C148.016 78.8417 148.016 79.0999 147.99 79.3065C147.939 79.5131 147.887 79.7197 147.81 79.9264C147.758 80.1329 147.68 80.3395 147.603 80.5461C147.5 80.7528 147.422 80.9335 147.319 81.1401C147.241 81.2435 147.19 81.3467 147.112 81.45C147.061 81.5275 147.009 81.605 146.957 81.6825C146.828 81.8632 146.699 82.044 146.57 82.199C146.415 82.3539 146.286 82.5347 146.105 82.6638V82.6897C145.95 82.8188 145.795 82.9738 145.614 83.1029C145.072 83.5161 144.452 83.826 143.884 84.2134C143.703 84.3425 143.523 84.4458 143.368 84.6007C143.187 84.7299 143.032 84.859 142.877 85.0139C142.696 85.1689 142.567 85.3238 142.412 85.5046C142.283 85.6596 142.128 85.8403 142.025 86.0211C141.896 86.2019 141.766 86.3827 141.663 86.5634C141.56 86.77 141.482 86.9508 141.379 87.1574C141.302 87.364 141.224 87.5448 141.172 87.7514C141.095 87.9838 141.043 88.1904 140.992 88.397C140.966 88.5004 140.966 88.6295 140.94 88.7328C140.914 88.8361 140.914 88.9394 140.888 89.0427C140.888 89.2493 140.863 89.4817 140.863 89.6883C140.863 89.8432 140.863 89.9982 140.888 90.1531C140.888 90.3597 140.914 90.5663 140.966 90.7988C140.992 91.0054 141.043 91.212 141.095 91.4186C141.173 91.6252 141.224 91.8318 141.302 92.0384C141.353 92.1675 141.431 92.2966 141.482 92.3999L135.543 90.1015C134.535 89.8174 133.554 89.5592 132.547 89.3267C132.005 89.1976 131.462 89.0685 130.92 88.9394C129.37 88.6295 127.795 88.397 126.22 88.2421C126.168 88.2421 126.142 88.2162 126.091 88.2162C124.541 88.0613 123.017 87.9838 121.468 87.9838C120.332 87.9838 119.195 88.0354 118.085 88.1129C116.51 88.2163 114.934 88.4228 113.359 88.6811C112.972 88.7327 112.584 88.8102 112.197 88.8877C111.396 89.0426 110.621 89.2234 109.872 89.4042C109.485 89.5075 109.098 89.6108 108.71 89.7141C108.323 89.869 107.961 90.0498 107.6 90.2048C107.316 90.3339 107.032 90.463 106.748 90.5921C106.696 90.618 106.644 90.618 106.619 90.6438C106.36 90.7729 106.128 90.8762 105.895 91.0053C105.818 91.0312 105.766 91.0569 105.715 91.0828C105.431 91.2119 105.146 91.3669 104.914 91.496C104.733 91.5735 104.553 91.6768 104.398 91.7542C104.32 91.8058 104.217 91.8576 104.165 91.8834C103.933 92.0125 103.7 92.1416 103.494 92.2707C103.261 92.3999 103.055 92.529 102.874 92.6581C102.693 92.7872 102.512 92.8905 102.357 93.0197C102.331 93.0455 102.306 93.0455 102.28 93.0713C102.125 93.1746 101.944 93.3037 101.789 93.4328C101.789 93.4328 101.763 93.4587 101.738 93.4844C101.608 93.5878 101.479 93.691 101.35 93.7943C101.299 93.8202 101.247 93.8718 101.195 93.8977C101.066 94.001 100.937 94.1301 100.808 94.2334C100.782 94.285 100.73 94.3109 100.705 94.3368C100.55 94.4917 100.395 94.6208 100.24 94.7758C100.214 94.7758 100.214 94.8016 100.188 94.8274C100.033 94.9565 99.8782 95.1115 99.7232 95.2664C99.6974 95.2923 99.6974 95.318 99.6716 95.318C99.5425 95.4471 99.4134 95.5763 99.2842 95.7312C99.2326 95.7828 99.1551 95.8346 99.1035 95.8862C98.9744 96.0411 98.8194 96.1961 98.6644 96.351C98.6386 96.4026 98.587 96.4285 98.5611 96.4802C98.3545 96.6868 98.1737 96.8934 97.9671 97.1C97.9413 97.1258 97.9155 97.1516 97.8897 97.1774C97.4764 97.6165 97.0374 98.0555 96.5726 98.4429C96.1077 98.8561 95.617 99.2434 95.1264 99.5792C94.6099 99.9407 94.1192 100.251 93.5768 100.561C93.0603 100.845 92.518 101.103 91.9499 101.335C91.4075 101.568 90.8394 101.774 90.2712 101.955C89.1866 102.188 88.0761 102.627 87.1206 102.704C86.914 102.704 86.6815 102.756 86.4749 102.781C86.2425 102.833 86.0359 102.885 85.8293 102.936C85.6227 103.014 85.4161 103.091 85.2095 103.169C85.0029 103.246 84.7963 103.35 84.5897 103.453C84.4089 103.582 84.2023 103.685 84.0215 103.814C83.8408 103.944 83.66 104.099 83.505 104.254C83.3243 104.383 83.1435 104.563 82.9885 104.718C82.8336 104.899 82.6786 105.054 82.5495 105.235C82.4204 105.441 82.2654 105.622 82.1621 105.829C82.033 106.01 81.9039 106.216 81.8006 106.423C81.6972 106.655 81.594 106.862 81.5165 107.094C81.439 107.301 81.3615 107.533 81.2841 107.766C81.2325 107.972 81.1807 108.179 81.155 108.386C81.155 108.411 81.1291 108.437 81.1291 108.463C81.0775 108.695 81.0775 109.005 81.0516 109.16C81.0257 109.341 81 109.496 81 109.677C81 109.78 81 109.909 81.0259 110.013C81.0517 110.193 81.0775 110.348 81.1292 110.503C81.1808 110.658 81.2325 110.813 81.31 110.968V110.994C81.3875 111.149 81.4908 111.304 81.5941 111.459C81.6974 111.614 81.8007 111.769 81.9298 111.924C82.0589 112.053 82.2139 112.208 82.3688 112.337C82.5238 112.492 82.6787 112.621 82.8595 112.75C83.4793 113.292 83.6342 113.473 84.4348 113.886C84.5639 113.964 84.6931 114.015 84.848 114.093C84.8739 114.093 84.8996 114.119 84.9255 114.119C84.9255 114.17 84.9255 114.196 84.9514 114.248C84.9772 114.455 85.0289 114.661 85.0805 114.868C85.1321 115.1 85.2096 115.307 85.2871 115.488C85.3646 115.643 85.4162 115.797 85.4937 115.952C85.5196 116.004 85.5453 116.056 85.5712 116.082C85.6745 116.288 85.7778 116.469 85.8811 116.65C86.0102 116.83 86.1393 117.011 86.2685 117.192C86.3976 117.347 86.5525 117.528 86.7075 117.683C86.8624 117.838 87.0174 117.967 87.1982 118.122C87.1982 118.122 87.224 118.148 87.2498 118.148C87.4047 118.277 87.5597 118.406 87.7146 118.509C87.8954 118.638 88.0762 118.742 88.2828 118.845C88.4636 118.948 88.6702 119.051 88.8768 119.129C89.0317 119.206 89.2125 119.258 89.3933 119.31C89.4191 119.336 89.4449 119.336 89.4966 119.361C89.6 119.387 89.729 119.413 89.8323 119.439C89.7549 120.833 89.729 122.15 89.9357 122.615C90.1681 123.132 91.3044 121.556 92.4407 119.749C92.2858 121.531 92.1825 123.622 92.4407 124.242C92.7248 124.888 94.2743 122.874 95.6172 120.653C113.927 116.417 130.636 129.072 132.392 146.943C132.056 144.153 128.622 142.604 127.046 142.991C126.272 144.902 124.955 147.356 122.837 148.88C123.018 147.175 122.94 145.419 122.579 143.714C122.011 146.09 120.9 148.311 119.376 150.222C116.923 150.403 114.47 149.215 113.178 147.433C113.075 147.356 113.049 147.201 112.972 147.098C112.894 146.917 112.817 146.736 112.765 146.555C112.688 146.374 112.636 146.194 112.61 146.013C112.584 145.832 112.584 145.651 112.584 145.445C112.584 145.316 112.584 145.187 112.584 145.057C112.61 144.877 112.662 144.696 112.713 144.515C112.765 144.334 112.817 144.153 112.894 143.973C112.998 143.792 113.075 143.611 113.204 143.43C113.643 142.191 113.643 141.184 112.843 140.59C112.688 140.486 112.533 140.409 112.352 140.331C112.249 140.306 112.119 140.254 112.016 140.228C111.939 140.202 111.887 140.176 111.81 140.151C111.629 140.099 111.448 140.047 111.267 140.021C111.086 139.97 110.906 139.944 110.725 139.944C110.544 139.918 110.337 139.892 110.157 139.892C110.028 139.892 109.898 139.918 109.769 139.918C109.563 139.918 109.382 139.944 109.201 139.996C109.02 140.022 108.84 140.047 108.659 140.099C108.478 140.151 108.297 140.202 108.117 140.28C107.936 140.357 107.781 140.435 107.6 140.512C107.445 140.59 107.29 140.693 107.109 140.77C101.092 144.696 104.682 153.89 108.788 156.55C107.238 156.834 105.663 157.169 105.224 157.505C105.198 157.531 105.173 157.557 105.173 157.557C106.283 158.228 107.445 158.796 108.659 159.287C110.312 159.829 112.068 160.32 112.843 160.527V160.553C114.986 160.992 117.155 161.147 119.351 161.017C130.791 160.217 140.166 151.514 141.87 140.047C141.922 140.28 141.973 140.486 142.025 140.719C142.102 141.184 142.206 141.674 142.257 142.165V142.191C142.309 142.423 142.335 142.656 142.361 142.862V142.966C142.387 143.198 142.412 143.431 142.412 143.637C142.438 143.921 142.464 144.205 142.464 144.489V144.903C142.464 145.032 142.49 145.187 142.49 145.316C142.49 145.471 142.464 145.626 142.464 145.781V146.142C142.464 146.323 142.438 146.478 142.438 146.659C142.438 146.762 142.438 146.865 142.412 146.994C142.412 147.175 142.386 147.356 142.386 147.563C142.36 147.64 142.36 147.718 142.36 147.795C142.335 148.002 142.309 148.182 142.283 148.389C142.283 148.466 142.283 148.544 142.257 148.621C142.231 148.88 142.18 149.112 142.154 149.37V149.396V149.422C142.102 149.655 142.05 149.913 141.999 150.145V150.223C141.947 150.455 141.896 150.688 141.844 150.92C141.844 150.946 141.818 150.997 141.818 151.023C141.766 151.256 141.715 151.488 141.637 151.721V151.798C141.56 152.056 141.482 152.289 141.431 152.521C141.405 152.547 141.405 152.573 141.405 152.573C141.327 152.831 141.25 153.089 141.172 153.348C141.069 153.606 140.992 153.838 140.888 154.096C140.785 154.355 140.708 154.613 140.604 154.845C140.501 155.104 140.398 155.336 140.294 155.594H140.268C140.165 155.827 140.062 156.085 139.933 156.317C139.907 156.395 139.881 156.447 139.855 156.498C139.829 156.524 139.829 156.55 139.804 156.576C138.125 159.959 135.646 162.929 132.547 165.253C132.34 165.382 132.134 165.537 131.927 165.692C131.875 165.744 131.798 165.769 131.746 165.821C131.565 165.95 131.385 166.079 131.178 166.208L131.255 166.363H131.281C131.643 166.312 132.004 166.26 132.366 166.208H132.392C133.063 166.105 133.735 165.976 134.406 165.847C134.587 165.821 134.794 165.769 134.974 165.718C135.104 165.692 135.207 165.666 135.336 165.64C135.517 165.614 135.697 165.563 135.878 165.537C136.033 165.485 136.188 165.459 136.343 165.408C138.926 164.788 141.431 163.936 143.832 162.929C139.726 168.533 134.225 173.052 127.795 176.022C130.765 175.815 133.735 175.325 136.601 174.498C147.009 171.425 155.764 164.426 161.006 155C159.947 160.966 157.571 166.647 154.059 171.606C156.564 169.953 158.863 168.042 160.954 165.873C166.739 159.83 170.536 152.16 171.827 143.921C172.705 148.002 172.963 152.211 172.576 156.369C191.222 130.363 174.125 103.402 166.972 96.2997C166.946 96.2481 166.92 96.2222 166.92 96.1706C166.894 96.1964 166.894 96.1964 166.894 96.2222C166.894 96.1963 166.894 96.1963 166.868 96.1706C166.868 96.4805 166.843 96.7904 166.817 97.1003C166.739 97.6943 166.662 98.2624 166.559 98.8306C166.429 99.3987 166.274 99.9669 166.119 100.535C165.939 101.077 165.732 101.646 165.5 102.188C165.267 102.704 165.009 103.247 164.725 103.763C164.441 104.254 164.131 104.77 163.795 105.235C163.46 105.726 163.098 106.191 162.736 106.63C162.349 107.095 161.936 107.508 161.523 107.921C161.264 108.153 161.032 108.36 160.774 108.567C160.567 108.747 160.386 108.902 160.18 109.083C159.715 109.445 159.25 109.78 158.734 110.09C158.243 110.4 157.726 110.71 157.21 110.968C156.667 111.227 156.125 111.459 155.583 111.692C155.041 111.898 154.472 112.079 153.904 112.234C153.336 112.389 152.742 112.518 152.174 112.621C151.58 112.725 150.986 112.776 150.418 112.828C150.005 112.854 149.591 112.879 149.178 112.879C148.584 112.879 147.99 112.828 147.422 112.776C146.828 112.724 146.234 112.647 145.666 112.518C145.072 112.414 144.504 112.26 143.936 112.079H143.91C144.478 112.027 145.046 111.975 145.614 111.872C146.208 111.769 146.776 111.64 147.345 111.485C147.913 111.33 148.481 111.149 149.023 110.942C149.591 110.736 150.134 110.478 150.65 110.219C151.193 109.961 151.683 109.677 152.2 109.367C152.69 109.031 153.181 108.696 153.646 108.334C154.111 107.973 154.55 107.585 154.963 107.172C155.402 106.785 155.789 106.346 156.177 105.907C156.564 105.442 156.926 104.977 157.261 104.512C157.313 104.435 157.365 104.331 157.416 104.254C157.675 103.841 157.933 103.427 158.165 103.014C158.449 102.498 158.708 101.981 158.94 101.439C159.173 100.897 159.379 100.354 159.56 99.786C159.741 99.2437 159.87 98.6755 159.999 98.1074C160.102 97.5134 160.205 96.9453 160.257 96.3771C160.309 95.7831 160.36 95.1891 160.36 94.621C160.36 94.2078 160.335 93.7946 160.309 93.3814C160.257 92.7874 160.18 92.2193 160.102 91.6511C159.999 91.0571 159.87 90.489 159.715 89.9208C159.534 89.3785 159.353 88.8103 159.147 88.268C158.94 87.7257 158.682 87.1834 158.424 86.6668C158.14 86.1503 157.855 85.6338 157.546 85.1432C157.21 84.6525 156.874 84.1876 156.513 83.7228C156.125 83.2838 155.738 82.8447 155.325 82.4057C155.118 82.1991 154.886 81.9667 154.653 81.7601C153.491 80.8562 152.277 80.004 151.063 79.2292C150.883 79.1259 150.728 79.0484 150.547 78.971C149.695 78.4286 148.894 78.1444 148.094 77.8862Z" fill="#E0234E"/>
<defs>
<filter id="filter0_d_305_112" x="0.723999" y="0.623779" width="260" height="260" filterUnits="userSpaceOnUse" color-interpolation-filters="sRGB">
<feFlood flood-opacity="0" result="BackgroundImageFix"/>
<feColorMatrix in="SourceAlpha" type="matrix" values="0 0 0 0 0 0 0 0 0 0 0 0 0 0 0 0 0 0 127 0" result="hardAlpha"/>
<feOffset dy="4"/>
<feGaussianBlur stdDeviation="20"/>
<feComposite in2="hardAlpha" operator="out"/>
<feColorMatrix type="matrix" values="0 0 0 0 0.0367917 0 0 0 0 0.0348958 0 0 0 0 0.0484375 0 0 0 0.1 0"/>
<feBlend mode="normal" in2="BackgroundImageFix" result="effect1_dropShadow_305_112"/>
<feBlend mode="normal" in="SourceGraphic" in2="effect1_dropShadow_305_112" result="shape"/>
</filter>
</defs>
</svg>
