<svg width="261" height="261" viewBox="0 0 261 261" fill="none" xmlns="http://www.w3.org/2000/svg">
<g filter="url(#filter0_d_22_658)">
<rect x="40.724" y="36.2969" width="180" height="180" rx="32" fill="white"/>
<rect x="41.224" y="36.7969" width="179" height="179" rx="31.5" stroke="white"/>
</g>
<path d="M179.869 124.665L175.671 122.066C175.636 121.658 175.596 121.25 175.551 120.843L179.159 117.478C179.34 117.31 179.474 117.099 179.55 116.865C179.625 116.631 179.639 116.381 179.591 116.139C179.544 115.898 179.435 115.672 179.276 115.485C179.116 115.297 178.911 115.153 178.681 115.067L174.069 113.343C173.953 112.945 173.832 112.548 173.707 112.152L176.584 108.157C176.728 107.957 176.819 107.723 176.848 107.479C176.876 107.234 176.842 106.986 176.747 106.759C176.653 106.531 176.502 106.331 176.309 106.179C176.116 106.026 175.887 105.925 175.644 105.885L170.781 105.094C170.592 104.726 170.395 104.362 170.196 104.002L172.24 99.5167C172.343 99.2928 172.386 99.0464 172.367 98.8008C172.347 98.5553 172.264 98.3189 172.127 98.1143C171.991 97.9091 171.804 97.7423 171.585 97.63C171.366 97.5177 171.122 97.4636 170.876 97.4729L165.94 97.6448C165.685 97.3255 165.425 97.0102 165.16 96.6991L166.294 91.8913C166.351 91.6515 166.346 91.4012 166.278 91.1642C166.211 90.9272 166.084 90.7114 165.909 90.5374C165.735 90.3632 165.52 90.2363 165.283 90.1689C165.046 90.1015 164.796 90.0958 164.556 90.1522L159.749 91.2854C159.437 91.0209 159.122 90.7609 158.802 90.5057L158.975 85.5702C158.984 85.3241 158.93 85.0798 158.818 84.8606C158.705 84.6414 158.539 84.4547 158.334 84.3182C158.129 84.1812 157.893 84.0989 157.647 84.079C157.402 84.0592 157.156 84.1026 156.932 84.2049L152.447 86.2495C152.085 86.0498 151.721 85.8545 151.355 85.6635L150.562 80.7995C150.522 80.5566 150.421 80.3279 150.268 80.135C150.116 79.9421 149.916 79.7914 149.689 79.6972C149.461 79.6031 149.214 79.5685 148.969 79.5969C148.725 79.6252 148.491 79.7155 148.292 79.8592L144.293 82.7362C143.9 82.6112 143.504 82.4905 143.105 82.376L141.38 77.7631C141.295 77.532 141.151 77.3268 140.963 77.1671C140.775 77.0073 140.55 76.8984 140.308 76.8506C140.067 76.8032 139.817 76.8179 139.583 76.8935C139.349 76.9691 139.139 77.103 138.971 77.2827L135.605 80.8932C135.198 80.8476 134.791 80.8078 134.383 80.7737L131.784 76.5745C131.654 76.3652 131.474 76.1925 131.259 76.0728C131.044 75.953 130.802 75.8901 130.556 75.8901C130.309 75.8901 130.067 75.953 129.853 76.0728C129.638 76.1925 129.457 76.3652 129.327 76.5745L126.728 80.7737C126.32 80.8077 125.912 80.8476 125.505 80.8932L122.139 77.2827C121.971 77.1024 121.76 76.968 121.525 76.8923C121.291 76.8166 121.041 76.8021 120.8 76.8503C120.558 76.8985 120.333 77.0076 120.145 77.1674C119.958 77.3272 119.815 77.5323 119.729 77.7631L118.005 82.376C117.605 82.4905 117.21 82.612 116.815 82.7362L112.817 79.8592C112.618 79.7149 112.384 79.6242 112.14 79.5958C111.895 79.5674 111.647 79.6023 111.419 79.6971C111.192 79.7915 110.993 79.9423 110.84 80.1351C110.687 80.328 110.586 80.5567 110.546 80.7995L109.753 85.6635C109.386 85.8538 109.023 86.0495 108.661 86.2495L104.176 84.2046C103.953 84.1021 103.706 84.0588 103.461 84.0787C103.215 84.0986 102.979 84.181 102.775 84.3182C102.57 84.4546 102.403 84.6413 102.291 84.8605C102.178 85.0797 102.124 85.3241 102.133 85.5702L102.305 90.5057C101.986 90.7614 101.67 91.0213 101.358 91.2854L96.5511 90.1526C96.3113 90.0964 96.0612 90.1023 95.8243 90.1696C95.5874 90.2369 95.3716 90.3635 95.1972 90.5374C95.0227 90.7114 94.8957 90.9272 94.8283 91.1642C94.7609 91.4012 94.7553 91.6515 94.812 91.8913L95.9444 96.6991C95.6815 97.0104 95.4218 97.3257 95.1667 97.6448L90.2308 97.4729C89.985 97.4652 89.7412 97.5199 89.5223 97.632C89.3034 97.7441 89.1165 97.9099 88.9792 98.1139C88.8422 98.3186 88.7599 98.5549 88.74 98.8003C88.7201 99.0458 88.7633 99.2922 88.8655 99.5163L90.9101 104.002C90.7112 104.362 90.5147 104.726 90.3241 105.094L85.4612 105.885C85.2182 105.925 84.9894 106.026 84.7964 106.179C84.6034 106.332 84.4526 106.532 84.3584 106.759C84.2643 106.987 84.2298 107.234 84.2582 107.479C84.2866 107.723 84.3771 107.957 84.521 108.157L87.3979 112.153C87.2729 112.547 87.1515 112.943 87.0366 113.343L82.4241 115.067C82.1938 115.154 81.9893 115.298 81.8301 115.485C81.6709 115.673 81.5622 115.898 81.5143 116.14C81.4663 116.381 81.4808 116.631 81.5563 116.865C81.6318 117.099 81.7658 117.31 81.9456 117.478L85.5538 120.843C85.5089 121.249 85.469 121.658 85.4347 122.066L81.2358 124.665C81.0266 124.794 80.854 124.975 80.7344 125.19C80.6147 125.405 80.552 125.647 80.5522 125.893C80.5522 126.395 80.8112 126.859 81.2362 127.121L85.4347 129.72C85.469 130.129 85.5089 130.537 85.5538 130.943L81.9452 134.309C81.7651 134.477 81.6308 134.688 81.5551 134.922C81.4795 135.156 81.4649 135.406 81.5129 135.647C81.5609 135.889 81.6698 136.114 81.8293 136.301C81.9888 136.489 82.1935 136.633 82.4241 136.719L87.0366 138.443C87.1515 138.842 87.2729 139.239 87.3979 139.633L84.521 143.63C84.3768 143.83 84.2862 144.063 84.2577 144.308C84.2292 144.552 84.2637 144.8 84.3581 145.028C84.4524 145.255 84.6034 145.455 84.7967 145.608C84.99 145.76 85.2192 145.861 85.4624 145.9L90.3245 146.691C90.5147 147.06 90.7097 147.423 90.9104 147.785L88.8655 152.269C88.7631 152.493 88.7198 152.74 88.7397 152.985C88.7596 153.231 88.8421 153.467 88.9792 153.672C89.1156 153.877 89.3022 154.043 89.5214 154.156C89.7405 154.268 89.9847 154.322 90.2308 154.313L95.1644 154.14C95.4218 154.461 95.6808 154.775 95.9444 155.088L94.812 159.896C94.7553 160.136 94.7609 160.386 94.8284 160.622C94.8958 160.859 95.0228 161.074 95.1972 161.248C95.3711 161.422 95.5869 161.549 95.824 161.616C96.061 161.684 96.3114 161.689 96.5511 161.632L101.358 160.5C101.67 160.765 101.987 161.023 102.306 161.277L102.134 166.214C102.125 166.46 102.179 166.704 102.291 166.923C102.403 167.142 102.57 167.329 102.775 167.466C102.979 167.603 103.216 167.685 103.461 167.704C103.706 167.724 103.953 167.68 104.176 167.578L108.661 165.535C109.022 165.735 109.386 165.931 109.753 166.12L110.546 170.982C110.586 171.225 110.686 171.454 110.839 171.647C110.992 171.84 111.192 171.991 111.419 172.085C111.647 172.179 111.895 172.214 112.139 172.186C112.384 172.157 112.617 172.067 112.817 171.924L116.813 169.045C117.208 169.17 117.604 169.292 118.003 169.407L119.728 174.018C119.814 174.249 119.958 174.454 120.145 174.613C120.333 174.772 120.558 174.881 120.8 174.928C121.041 174.977 121.291 174.963 121.525 174.887C121.76 174.812 121.971 174.677 122.138 174.496L125.504 170.888C125.91 170.935 126.319 170.974 126.728 171.01L129.326 175.208C129.456 175.417 129.637 175.59 129.852 175.709C130.067 175.829 130.308 175.892 130.554 175.892C130.8 175.892 131.042 175.829 131.257 175.71C131.472 175.59 131.653 175.418 131.783 175.208L134.382 171.01C134.791 170.974 135.199 170.935 135.605 170.888L138.97 174.496C139.137 174.677 139.348 174.811 139.582 174.887C139.816 174.963 140.066 174.977 140.307 174.928C140.549 174.881 140.774 174.772 140.962 174.613C141.149 174.453 141.293 174.249 141.379 174.018L143.104 169.407C143.503 169.292 143.9 169.17 144.294 169.045L148.291 171.924C148.491 172.067 148.724 172.158 148.969 172.186C149.213 172.214 149.461 172.179 149.689 172.085C149.916 171.991 150.115 171.84 150.268 171.647C150.421 171.454 150.522 171.225 150.561 170.982L151.354 166.12C151.721 165.93 152.084 165.732 152.446 165.534L156.931 167.578C157.155 167.681 157.401 167.725 157.647 167.705C157.892 167.686 158.129 167.604 158.333 167.467C158.538 167.33 158.705 167.143 158.817 166.924C158.929 166.704 158.983 166.46 158.974 166.214L158.802 161.277C159.121 161.023 159.437 160.764 159.748 160.5L164.555 161.632C165.044 161.746 165.555 161.604 165.908 161.248C166.082 161.074 166.209 160.859 166.277 160.622C166.344 160.386 166.35 160.136 166.293 159.896L165.161 155.088C165.425 154.775 165.685 154.461 165.939 154.14L170.875 154.313C171.121 154.322 171.365 154.268 171.584 154.156C171.803 154.044 171.99 153.877 172.126 153.672C172.263 153.468 172.346 153.231 172.366 152.985C172.385 152.74 172.342 152.493 172.239 152.269L170.195 147.785C170.395 147.423 170.591 147.06 170.78 146.692L175.643 145.9C175.886 145.861 176.115 145.76 176.308 145.607C176.501 145.455 176.652 145.255 176.746 145.027C176.84 144.799 176.874 144.552 176.846 144.307C176.818 144.063 176.727 143.83 176.583 143.63L173.707 139.634C173.831 139.239 173.952 138.842 174.068 138.443L178.68 136.719C178.91 136.633 179.115 136.489 179.275 136.301C179.434 136.114 179.543 135.888 179.59 135.646C179.639 135.405 179.625 135.155 179.549 134.921C179.473 134.687 179.339 134.476 179.158 134.309L175.551 130.943C175.594 130.537 175.635 130.128 175.67 129.72L179.868 127.121C180.078 126.992 180.25 126.811 180.37 126.596C180.49 126.381 180.552 126.139 180.552 125.893C180.552 125.393 180.294 124.928 179.869 124.665ZM151.771 159.491C150.167 159.146 149.148 157.566 149.492 155.957C149.835 154.351 151.414 153.329 153.017 153.674C154.62 154.018 155.641 155.601 155.297 157.206C154.953 158.811 153.373 159.835 151.771 159.491ZM150.344 149.843C149.996 149.769 149.637 149.763 149.287 149.828C148.937 149.892 148.603 150.025 148.305 150.218C148.006 150.412 147.749 150.662 147.547 150.955C147.345 151.248 147.203 151.578 147.129 151.926L145.639 158.882C141.039 160.969 135.932 162.129 130.552 162.129C125.05 162.129 119.831 160.912 115.15 158.735L113.66 151.78C113.347 150.316 111.908 149.384 110.446 149.698L104.305 151.017C103.164 149.842 102.103 148.592 101.13 147.274H131.009C131.347 147.274 131.573 147.213 131.573 146.905V136.336C131.573 136.029 131.347 135.967 131.009 135.967H122.271V129.268H131.722C132.585 129.268 136.335 129.514 137.534 134.308C137.91 135.782 138.734 140.578 139.298 142.113C139.86 143.835 142.147 147.274 144.584 147.274H159.473C159.642 147.274 159.823 147.255 160.013 147.221C158.98 148.624 157.848 149.951 156.626 151.193L150.344 149.843H150.344ZM109.02 159.346C107.416 159.692 105.838 158.67 105.493 157.064C105.15 155.455 106.169 153.875 107.773 153.53C109.376 153.187 110.955 154.209 111.299 155.815C111.642 157.42 110.622 159.002 109.019 159.346H109.02ZM97.6851 113.385C98.3503 114.886 97.6733 116.645 96.1745 117.309C94.6757 117.975 92.9214 117.297 92.2565 115.795C91.5913 114.293 92.2679 112.537 93.7671 111.871C94.1237 111.713 94.5079 111.627 94.8979 111.617C95.2879 111.608 95.6759 111.675 96.0398 111.816C96.4037 111.956 96.7363 112.167 97.0186 112.436C97.3009 112.706 97.5274 113.028 97.6851 113.385V113.385ZM94.2015 121.643L100.598 118.8C101.255 118.508 101.769 117.967 102.027 117.296C102.285 116.626 102.266 115.88 101.975 115.223L100.658 112.244H105.839V135.599H95.3854C94.4588 132.337 93.99 128.962 93.9925 125.571C93.9925 124.243 94.064 122.932 94.2015 121.642V121.643ZM122.273 119.374V112.49H134.611C135.248 112.49 139.111 113.227 139.111 116.116C139.111 118.514 136.148 119.373 133.712 119.373H122.273V119.374ZM167.113 125.571C167.113 126.484 167.08 127.388 167.013 128.285H163.262C162.886 128.285 162.735 128.532 162.735 128.899V130.622C162.735 134.676 160.449 135.558 158.445 135.783C156.537 135.998 154.422 134.984 154.161 133.817C153.035 127.486 151.16 126.134 148.198 123.798C151.874 121.464 155.698 118.021 155.698 113.411C155.698 108.435 152.287 105.3 149.961 103.763C146.698 101.612 143.086 101.181 142.111 101.181H103.317C108.578 95.3096 115.708 91.1506 123.771 89.6374L128.344 94.4342C128.589 94.6917 128.883 94.8983 129.208 95.0421C129.534 95.1859 129.884 95.2642 130.24 95.2724C130.595 95.2806 130.949 95.2186 131.28 95.0899C131.612 94.9612 131.915 94.7684 132.172 94.5225L137.288 89.6288C148.009 91.6249 157.086 98.2983 162.317 107.454L158.814 115.366C158.209 116.735 158.826 118.336 160.192 118.942L166.935 121.938C167.052 123.135 167.113 124.344 167.113 125.571ZM128.346 85.5565C129.531 84.4217 131.41 84.4667 132.544 85.653C133.676 86.8428 133.633 88.7241 132.446 89.8581C131.261 90.9932 129.382 90.9491 128.248 89.7604C127.704 89.1895 127.409 88.4262 127.428 87.6381C127.446 86.85 127.776 86.1014 128.346 85.5565ZM163.105 113.529C163.263 113.172 163.489 112.85 163.771 112.581C164.053 112.312 164.386 112.101 164.75 111.961C165.114 111.82 165.502 111.753 165.892 111.762C166.282 111.772 166.666 111.858 167.022 112.017C168.521 112.682 169.198 114.44 168.533 115.941C168.375 116.297 168.149 116.62 167.867 116.889C167.584 117.158 167.252 117.369 166.888 117.51C166.524 117.651 166.136 117.718 165.746 117.708C165.356 117.699 164.971 117.612 164.615 117.454C163.117 116.789 162.441 115.032 163.105 113.529Z" fill="black"/>
<defs>
<filter id="filter0_d_22_658" x="0.723999" y="0.296875" width="260" height="260" filterUnits="userSpaceOnUse" color-interpolation-filters="sRGB">
<feFlood flood-opacity="0" result="BackgroundImageFix"/>
<feColorMatrix in="SourceAlpha" type="matrix" values="0 0 0 0 0 0 0 0 0 0 0 0 0 0 0 0 0 0 127 0" result="hardAlpha"/>
<feOffset dy="4"/>
<feGaussianBlur stdDeviation="20"/>
<feComposite in2="hardAlpha" operator="out"/>
<feColorMatrix type="matrix" values="0 0 0 0 0.0367917 0 0 0 0 0.0348958 0 0 0 0 0.0484375 0 0 0 0.1 0"/>
<feBlend mode="normal" in2="BackgroundImageFix" result="effect1_dropShadow_22_658"/>
<feBlend mode="normal" in="SourceGraphic" in2="effect1_dropShadow_22_658" result="shape"/>
</filter>
</defs>
</svg>
