<svg width="261" height="261" viewBox="0 0 261 261" fill="none" xmlns="http://www.w3.org/2000/svg">
<g filter="url(#filter0_d_412_35)">
<rect x="40.724" y="36.8418" width="180" height="180" rx="32" fill="white"/>
<rect x="41.224" y="37.3418" width="179" height="179" rx="31.5" stroke="white"/>
</g>
<path d="M181 99.6258C181 99.6258 147.667 75.0975 121.88 80.7579L119.994 81.3868C116.22 82.6447 113.075 84.5315 111.189 87.0472L109.931 88.934L100.497 105.286L116.849 108.431C123.767 112.833 132.572 114.72 140.748 112.833L169.679 118.494L181 99.6258Z" fill="#76B3E1"/>
<path opacity="0.3" d="M181 99.6258C181 99.6258 147.667 75.0975 121.88 80.7579L119.994 81.3868C116.22 82.6447 113.075 84.5315 111.189 87.0472L109.931 88.934L100.497 105.286L116.849 108.431C123.767 112.833 132.572 114.72 140.748 112.833L169.679 118.494L181 99.6258Z" fill="url(#paint0_linear_412_35)"/>
<path d="M111.189 99.6258L108.673 100.255C97.981 103.399 94.8364 113.462 100.497 122.267C106.786 130.443 119.994 134.846 130.685 131.701L169.679 118.494C169.679 118.494 136.346 93.9654 111.189 99.6258Z" fill="#518AC8"/>
<path opacity="0.3" d="M111.189 99.6258L108.673 100.255C97.981 103.399 94.8364 113.462 100.497 122.267C106.786 130.443 119.994 134.846 130.685 131.701L169.679 118.494C169.679 118.494 136.346 93.9654 111.189 99.6258Z" fill="url(#paint1_linear_412_35)"/>
<path d="M162.761 127.928C159.24 123.529 154.486 120.281 149.107 118.6C143.729 116.919 137.972 116.882 132.572 118.494L93.5786 131.072L81 153.085L151.44 165.035L164.019 142.393C166.535 137.991 165.906 132.959 162.761 127.928Z" fill="url(#paint2_linear_412_35)"/>
<path d="M150.182 149.94C146.661 145.541 141.907 142.293 136.529 140.613C131.151 138.932 125.393 138.895 119.994 140.506L81 153.085C81 153.085 114.333 178.242 140.12 171.953L142.006 171.324C152.698 168.179 156.472 158.116 150.182 149.94Z" fill="url(#paint3_linear_412_35)"/>
<defs>
<filter id="filter0_d_412_35" x="0.723999" y="0.841797" width="260" height="260" filterUnits="userSpaceOnUse" color-interpolation-filters="sRGB">
<feFlood flood-opacity="0" result="BackgroundImageFix"/>
<feColorMatrix in="SourceAlpha" type="matrix" values="0 0 0 0 0 0 0 0 0 0 0 0 0 0 0 0 0 0 127 0" result="hardAlpha"/>
<feOffset dy="4"/>
<feGaussianBlur stdDeviation="20"/>
<feComposite in2="hardAlpha" operator="out"/>
<feColorMatrix type="matrix" values="0 0 0 0 0.0367917 0 0 0 0 0.0348958 0 0 0 0 0.0484375 0 0 0 0.1 0"/>
<feBlend mode="normal" in2="BackgroundImageFix" result="effect1_dropShadow_412_35"/>
<feBlend mode="normal" in="SourceGraphic" in2="effect1_dropShadow_412_35" result="shape"/>
</filter>
<linearGradient id="paint0_linear_412_35" x1="95.7798" y1="79.5" x2="174.082" y2="117.55" gradientUnits="userSpaceOnUse">
<stop offset="0.1" stop-color="#76B3E1"/>
<stop offset="0.3" stop-color="#DCF2FD"/>
<stop offset="1" stop-color="#76B3E1"/>
</linearGradient>
<linearGradient id="paint1_linear_412_35" x1="138.736" y1="98.1163" x2="125.025" y2="143.777" gradientUnits="userSpaceOnUse">
<stop stop-color="#76B3E1"/>
<stop offset="0.5" stop-color="#4377BB"/>
<stop offset="1" stop-color="#1F3B77"/>
</linearGradient>
<linearGradient id="paint2_linear_412_35" x1="90.0566" y1="117.991" x2="169.239" y2="171.827" gradientUnits="userSpaceOnUse">
<stop stop-color="#315AA9"/>
<stop offset="0.5" stop-color="#518AC8"/>
<stop offset="1" stop-color="#315AA9"/>
</linearGradient>
<linearGradient id="paint3_linear_412_35" x1="125.78" y1="124.469" x2="93.8302" y2="241.638" gradientUnits="userSpaceOnUse">
<stop stop-color="#4377BB"/>
<stop offset="0.5" stop-color="#1A336B"/>
<stop offset="1" stop-color="#1A336B"/>
</linearGradient>
</defs>
</svg>
