<svg width="261" height="261" viewBox="0 0 261 261" fill="none" xmlns="http://www.w3.org/2000/svg">
<g filter="url(#filter0_d_22_663)">
<rect x="40.724" y="36.2969" width="180" height="180" rx="32" fill="white"/>
<rect x="41.224" y="36.7969" width="179" height="179" rx="31.5" stroke="white"/>
</g>
<path d="M166.598 89.1219C157.307 75.8317 138.956 71.8924 125.689 80.3419L102.39 95.1861C100.823 96.171 99.3608 97.316 98.0304 98.603C96.6984 99.89 95.5049 101.312 94.4684 102.846C93.4318 104.38 92.5571 106.018 91.8577 107.732C91.16 109.447 90.642 111.23 90.312 113.052C90.0366 114.579 89.8864 116.128 89.8664 117.68C89.8447 119.234 89.9532 120.787 90.1885 122.321C90.4239 123.856 90.7861 125.37 91.2702 126.846C91.7542 128.321 92.3602 129.754 93.0813 131.129C92.5852 131.883 92.1273 132.661 91.7092 133.461C91.2902 134.26 90.913 135.082 90.5775 135.92C90.2419 136.758 89.9498 137.612 89.7011 138.48C89.4524 139.348 89.2488 140.228 89.0885 141.116C88.4227 144.85 88.5107 148.68 89.3472 152.38C89.7645 154.224 90.3638 156.024 91.1383 157.75C91.9128 159.475 92.8559 161.121 93.9576 162.66C103.248 175.95 121.598 179.89 134.865 171.44L158.163 156.658C159.731 155.671 161.19 154.525 162.52 153.236C163.85 151.948 165.043 150.526 166.08 148.993C167.117 147.461 167.992 145.823 168.691 144.109C169.39 142.396 169.91 140.613 170.242 138.792C170.517 137.265 170.666 135.718 170.686 134.165C170.706 132.613 170.597 131.061 170.36 129.527C170.125 127.993 169.763 126.48 169.277 125.005C168.791 123.531 168.185 122.099 167.464 120.723C167.96 119.97 168.419 119.191 168.838 118.391C169.255 117.592 169.634 116.771 169.97 115.933C170.305 115.095 170.599 114.24 170.849 113.372C171.098 112.506 171.305 111.626 171.467 110.738C171.797 108.875 171.941 106.984 171.898 105.093C171.854 103.202 171.622 101.32 171.205 99.4743C170.788 97.6299 170.188 95.8305 169.414 94.1045C168.64 92.3783 167.697 90.7332 166.598 89.1937" fill="#FF3E00"/>
<path d="M123.412 163.946C121.589 164.419 119.704 164.612 117.822 164.516C115.941 164.42 114.085 164.039 112.319 163.383C110.553 162.728 108.897 161.808 107.408 160.654C105.92 159.499 104.617 158.125 103.544 156.578C102.881 155.651 102.314 154.663 101.85 153.625C101.384 152.587 101.024 151.506 100.773 150.397C100.524 149.287 100.384 148.155 100.359 147.018C100.334 145.882 100.422 144.745 100.623 143.625C100.654 143.443 100.691 143.261 100.731 143.081C100.77 142.899 100.813 142.718 100.86 142.54C100.905 142.359 100.955 142.181 101.008 142.002C101.06 141.825 101.117 141.648 101.175 141.473L101.614 140.133L102.811 141.026C103.497 141.527 104.205 141.999 104.931 142.44C105.657 142.882 106.402 143.293 107.163 143.67C107.922 144.049 108.7 144.396 109.49 144.708C110.279 145.022 111.082 145.301 111.897 145.546L112.79 145.805L112.709 146.698C112.666 147.306 112.73 147.916 112.896 148.502C112.978 148.796 113.087 149.08 113.219 149.353C113.35 149.627 113.506 149.889 113.683 150.136C114.007 150.602 114.4 151.016 114.849 151.363C115.297 151.71 115.796 151.987 116.328 152.184C116.861 152.381 117.418 152.495 117.986 152.523C118.552 152.553 119.119 152.495 119.668 152.351C119.795 152.318 119.919 152.28 120.042 152.236C120.166 152.193 120.288 152.146 120.406 152.093C120.526 152.041 120.643 151.984 120.76 151.922C120.875 151.862 120.987 151.797 121.097 151.727L144.361 136.881C144.646 136.702 144.912 136.494 145.154 136.26C145.396 136.025 145.611 135.766 145.8 135.487C145.988 135.209 146.145 134.91 146.272 134.598C146.397 134.286 146.491 133.962 146.551 133.631C146.609 133.292 146.634 132.95 146.626 132.606C146.618 132.264 146.574 131.924 146.497 131.588C146.422 131.254 146.312 130.929 146.17 130.615C146.03 130.303 145.856 130.006 145.656 129.727C145.332 129.261 144.94 128.849 144.491 128.502C144.042 128.155 143.543 127.877 143.012 127.681C142.48 127.484 141.921 127.369 141.355 127.34C140.787 127.312 140.219 127.37 139.67 127.512C139.545 127.545 139.42 127.584 139.296 127.627C139.173 127.671 139.053 127.717 138.933 127.769C138.812 127.822 138.696 127.879 138.58 127.941C138.465 128.001 138.352 128.068 138.241 128.138L129.308 133.81C128.944 134.04 128.57 134.257 128.19 134.461C127.807 134.663 127.42 134.851 127.024 135.025C126.629 135.199 126.227 135.357 125.819 135.499C125.412 135.643 125 135.769 124.582 135.881C122.761 136.352 120.88 136.542 119.002 136.446C117.124 136.349 115.273 135.966 113.511 135.314C111.748 134.659 110.095 133.74 108.61 132.588C107.124 131.436 105.822 130.066 104.749 128.522C104.09 127.595 103.524 126.606 103.061 125.567C102.597 124.529 102.239 123.447 101.99 122.339C101.741 121.229 101.604 120.097 101.581 118.961C101.556 117.826 101.644 116.689 101.846 115.57C102.241 113.369 103.09 111.273 104.34 109.418C105.591 107.562 107.215 105.989 109.109 104.797L132.444 89.9532C132.807 89.7229 133.177 89.5059 133.556 89.3022C133.935 89.1003 134.322 88.9116 134.714 88.738C135.108 88.5644 135.507 88.4062 135.913 88.264C136.317 88.1204 136.728 87.9919 137.143 87.8801C138.966 87.4077 140.85 87.2141 142.73 87.3092C144.611 87.406 146.466 87.7866 148.232 88.4426C149.998 89.0969 151.652 90.0183 153.141 91.1717C154.628 92.327 155.93 93.7021 157.003 95.2496C157.664 96.1743 158.233 97.1625 158.699 98.2007C159.165 99.239 159.525 100.319 159.777 101.429C160.028 102.539 160.168 103.671 160.193 104.807C160.22 105.944 160.133 107.081 159.933 108.201C159.898 108.385 159.861 108.568 159.819 108.75C159.779 108.932 159.736 109.114 159.689 109.294C159.644 109.476 159.594 109.656 159.542 109.835C159.49 110.015 159.437 110.194 159.379 110.371L158.933 111.711L157.744 110.818C157.057 110.312 156.347 109.838 155.62 109.393C154.892 108.949 154.144 108.535 153.381 108.153C151.854 107.391 150.265 106.759 148.632 106.263L147.738 106.004L147.819 105.111C147.844 104.806 147.843 104.499 147.814 104.195C147.788 103.891 147.733 103.589 147.652 103.293C147.571 103 147.465 102.711 147.334 102.436C147.203 102.158 147.048 101.895 146.871 101.644C146.546 101.187 146.152 100.782 145.704 100.442C145.257 100.102 144.761 99.8317 144.232 99.6413C143.17 99.2558 142.015 99.204 140.922 99.4927C140.795 99.5261 140.67 99.5645 140.548 99.6062C140.425 99.6496 140.303 99.698 140.183 99.7498C140.064 99.8015 139.946 99.8599 139.831 99.92C139.715 99.9818 139.602 100.047 139.492 100.117L116.185 114.936C115.901 115.115 115.636 115.323 115.395 115.557C115.155 115.791 114.938 116.05 114.749 116.327C114.562 116.605 114.404 116.902 114.277 117.213C114.15 117.525 114.056 117.847 113.996 118.178C113.938 118.517 113.913 118.86 113.921 119.204C113.941 119.893 114.096 120.57 114.377 121.199C114.519 121.512 114.69 121.811 114.889 122.09C115.212 122.551 115.602 122.962 116.048 123.306C116.493 123.651 116.987 123.927 117.515 124.123C118.576 124.518 119.732 124.581 120.83 124.305C120.955 124.27 121.08 124.232 121.204 124.189C121.326 124.145 121.448 124.097 121.568 124.045C121.687 123.993 121.805 123.936 121.92 123.875C122.035 123.815 122.149 123.75 122.259 123.679L131.192 118.018C131.558 117.784 131.93 117.563 132.312 117.36C132.693 117.155 133.082 116.966 133.479 116.791C133.875 116.617 134.278 116.459 134.686 116.317C135.095 116.173 135.509 116.046 135.928 115.936C137.751 115.462 139.634 115.268 141.515 115.362C143.396 115.457 145.25 115.838 147.016 116.492C148.781 117.146 150.437 118.066 151.924 119.221C153.413 120.374 154.715 121.748 155.788 123.296C156.449 124.222 157.017 125.21 157.482 126.248C157.948 127.286 158.309 128.367 158.561 129.477C158.811 130.585 158.951 131.717 158.978 132.853C159.005 133.992 158.916 135.129 158.718 136.247C158.521 137.345 158.21 138.42 157.791 139.453C157.372 140.488 156.847 141.475 156.222 142.4C155.599 143.324 154.882 144.182 154.081 144.958C153.279 145.735 152.4 146.426 151.455 147.02L128.146 161.864C127.781 162.096 127.407 162.315 127.026 162.518C126.644 162.722 126.255 162.911 125.858 163.084C125.462 163.26 125.06 163.418 124.651 163.562C124.244 163.705 123.83 163.834 123.412 163.946Z" fill="white"/>
<defs>
<filter id="filter0_d_22_663" x="0.723999" y="0.296875" width="260" height="260" filterUnits="userSpaceOnUse" color-interpolation-filters="sRGB">
<feFlood flood-opacity="0" result="BackgroundImageFix"/>
<feColorMatrix in="SourceAlpha" type="matrix" values="0 0 0 0 0 0 0 0 0 0 0 0 0 0 0 0 0 0 127 0" result="hardAlpha"/>
<feOffset dy="4"/>
<feGaussianBlur stdDeviation="20"/>
<feComposite in2="hardAlpha" operator="out"/>
<feColorMatrix type="matrix" values="0 0 0 0 0.0367917 0 0 0 0 0.0348958 0 0 0 0 0.0484375 0 0 0 0.1 0"/>
<feBlend mode="normal" in2="BackgroundImageFix" result="effect1_dropShadow_22_663"/>
<feBlend mode="normal" in="SourceGraphic" in2="effect1_dropShadow_22_663" result="shape"/>
</filter>
</defs>
</svg>
